<svg width="125" height="125" viewBox="0 0 125 125" fill="none" xmlns="http://www.w3.org/2000/svg">
<path d="M57.4701 38.951C56.7001 39.114 55.9391 39.3141 55.1951 39.5401C55.9391 39.3041 56.7001 39.114 57.4701 38.951Z" fill="#F63F61"/>
<path d="M61.0499 38.498C60.2439 38.543 59.437 38.625 58.658 38.743C59.437 38.624 60.2339 38.543 61.0499 38.498Z" fill="#F63F61"/>
<path d="M62.273 124.559C44.539 124.559 28.544 117.146 17.199 105.248C16.51 104.532 15.84 103.789 15.187 103.037C14.68 102.457 14.181 101.859 13.701 101.252C8.48099 94.755 4.53898 87.188 2.25598 78.932C2.04798 78.198 1.857 77.455 1.685 76.712C1.159 74.528 0.761041 72.299 0.480042 70.033C0.362042 69.1 0.263002 68.157 0.190002 67.215C0.0630024 65.584 0 63.944 0 62.285C0 62.285 0 62.285 0 62.276C0 51.655 8.60901 43.047 19.239 43.047C24.549 43.047 29.361 45.204 32.841 48.684C36.321 52.164 38.469 56.967 38.469 62.277C38.469 75.435 49.126 86.092 62.275 86.092C56.965 86.092 52.162 88.249 48.682 91.729C45.193 95.209 43.045 100.012 43.045 105.331C43.044 115.95 51.643 124.55 62.273 124.559Z" fill="#EF4444"/>
<path d="M82.6439 74.628C82.2449 75.28 81.8189 75.915 81.3569 76.522C81.8109 75.914 82.2459 75.28 82.6439 74.628Z" fill="#9E394F"/>
<path d="M124.556 62.276C124.556 96.675 96.6719 124.559 62.2819 124.559H62.2729C51.6429 124.55 43.0439 115.95 43.0439 105.33C43.0439 100.011 45.192 95.208 48.681 91.728C52.161 88.248 56.9639 86.091 62.2739 86.091H62.283C68.853 86.091 74.798 83.427 79.111 79.113C79.646 78.587 80.162 78.016 80.652 77.427C80.897 77.128 81.1319 76.829 81.3589 76.521C81.8209 75.914 82.2469 75.28 82.6459 74.627C84.8299 71.029 86.09 66.797 86.09 62.276C86.09 67.586 88.2469 72.398 91.7269 75.878C95.2069 79.367 100.01 81.515 105.329 81.515C115.947 81.515 124.556 72.906 124.556 62.276Z" fill="#F59E0B"/>
<path d="M81.512 19.241C81.512 24.551 79.355 29.363 75.876 32.843C72.396 36.323 67.593 38.47 62.283 38.47H62.274C61.866 38.47 61.458 38.479 61.051 38.497C60.245 38.542 59.438 38.624 58.659 38.742C58.26 38.805 57.862 38.878 57.472 38.95C56.702 39.113 55.941 39.303 55.197 39.539C52.959 40.237 50.865 41.252 48.962 42.529C48.01 43.172 47.113 43.879 46.261 44.649C45.98 44.903 45.708 45.166 45.436 45.437C45.164 45.709 44.901 45.981 44.648 46.262C43.878 47.114 43.171 48.011 42.528 48.962C41.25 50.865 40.235 52.958 39.538 55.197C39.302 55.94 39.112 56.701 38.949 57.472C38.867 57.862 38.804 58.251 38.741 58.65C38.623 59.438 38.542 60.236 38.496 61.051C38.478 61.459 38.469 61.867 38.469 62.274C38.469 56.964 36.321 52.161 32.841 48.681C29.361 45.201 24.549 43.044 19.239 43.044C8.60901 43.044 0 51.653 0 62.273C0 50.248 3.40701 39.02 9.32501 29.496C10.159 28.137 11.047 26.814 11.998 25.527C12.705 24.548 13.448 23.597 14.218 22.663C14.852 21.893 15.505 21.141 16.175 20.407C16.846 19.664 17.534 18.948 18.241 18.241C19.999 16.483 21.866 14.825 23.823 13.284C24.439 12.795 25.064 12.323 25.708 11.861C27.094 10.855 28.517 9.904 29.976 9.016C31.263 8.237 32.577 7.503 33.918 6.814C37.498 4.974 41.285 3.47901 45.218 2.36501C46.206 2.08401 47.203 1.83 48.208 1.595C50.22 1.133 52.259 0.761001 54.343 0.498001C55.376 0.371001 56.427 0.262 57.478 0.181C59.064 0.0629998 60.659 0 62.272 0C62.281 0 62.281 0 62.29 0C72.912 0.012 81.512 8.611 81.512 19.241Z" fill="#06B6D4"/>
<path d="M124.556 62.2761C124.556 72.9061 115.947 81.5151 105.327 81.5151C100.008 81.5151 95.205 79.3671 91.725 75.8781C88.245 72.3981 86.088 67.5861 86.088 62.2761C86.088 61.0441 85.997 59.8291 85.816 58.6511C85.689 57.8631 85.5349 57.0831 85.3359 56.3221C84.7559 54.0481 83.832 51.8911 82.645 49.9331C82.246 49.2721 81.82 48.6371 81.358 48.0301C81.131 47.7221 80.8959 47.423 80.6509 47.133C80.1709 46.544 79.6539 45.9821 79.1199 45.4381H79.111C78.848 45.1751 78.5669 44.9121 78.2859 44.6501C78.0779 44.4601 77.8599 44.2691 77.6429 44.0881C77.2989 43.7981 76.954 43.5171 76.592 43.2541C76.266 43.0001 75.931 42.7651 75.595 42.5291C73.701 41.2511 71.5989 40.2361 69.3599 39.5391C68.6169 39.3031 67.856 39.1041 67.085 38.9501C66.695 38.8771 66.2969 38.8051 65.8979 38.7421C65.1189 38.6241 64.3209 38.5431 63.5059 38.4971C63.0979 38.4791 62.69 38.4701 62.283 38.4701C67.593 38.4701 72.396 36.3221 75.876 32.8431C79.356 29.3631 81.512 24.5511 81.512 19.2411C81.512 8.61105 72.9119 0.0120518 62.2919 0.00305176C96.6809 0.0120518 124.556 27.8951 124.556 62.2761Z" fill="#8B5CF6"/>
<path d="M67.085 38.951C67.855 39.105 68.6159 39.3041 69.3599 39.5401C68.6169 39.3131 67.855 39.114 67.085 38.951Z" fill="#F63F61"/>
<path d="M79.119 45.439C79.654 45.983 80.17 46.545 80.65 47.134C80.161 46.545 79.653 45.983 79.109 45.439H79.119Z" fill="#F63F61"/>
<path d="M82.6439 49.934C82.2449 49.273 81.8099 48.638 81.3569 48.031C81.8199 48.638 82.2459 49.272 82.6439 49.934Z" fill="#F63F61"/>
</svg>
