<svg width="249" height="187" viewBox="0 0 249 187" fill="none" xmlns="http://www.w3.org/2000/svg">
<path d="M42.1183 148.016H37.5415C37.2708 146.699 36.7972 145.543 36.1205 144.546C35.4561 143.55 34.6441 142.713 33.6845 142.037C32.7372 141.348 31.6852 140.831 30.5288 140.486C29.3723 140.142 28.1666 139.97 26.9116 139.97C24.6233 139.97 22.5502 140.548 20.6924 141.704C18.847 142.861 17.3768 144.565 16.2818 146.816C15.1991 149.068 14.6578 151.83 14.6578 155.102C14.6578 158.375 15.1991 161.137 16.2818 163.389C17.3768 165.64 18.847 167.344 20.6924 168.501C22.5502 169.657 24.6233 170.235 26.9116 170.235C28.1666 170.235 29.3723 170.063 30.5288 169.719C31.6852 169.374 32.7372 168.863 33.6845 168.187C34.6441 167.498 35.4561 166.655 36.1205 165.659C36.7972 164.65 37.2708 163.493 37.5415 162.189H42.1183C41.7738 164.121 41.1463 165.849 40.2359 167.375C39.3255 168.9 38.1936 170.198 36.8402 171.269C35.4869 172.327 33.9675 173.133 32.2819 173.686C30.6087 174.24 28.8186 174.517 26.9116 174.517C23.6882 174.517 20.8216 173.729 18.3118 172.155C15.802 170.58 13.8273 168.341 12.3879 165.437C10.9484 162.534 10.2287 159.089 10.2287 155.102C10.2287 151.116 10.9484 147.671 12.3879 144.768C13.8273 141.864 15.802 139.625 18.3118 138.05C20.8216 136.476 23.6882 135.688 26.9116 135.688C28.8186 135.688 30.6087 135.965 32.2819 136.519C33.9675 137.072 35.4869 137.884 36.8402 138.955C38.1936 140.013 39.3255 141.305 40.2359 142.83C41.1463 144.343 41.7738 146.072 42.1183 148.016ZM60.4391 174.591C57.88 174.591 55.6347 173.982 53.7031 172.764C51.7839 171.546 50.2829 169.842 49.2002 167.652C48.1298 165.462 47.5947 162.903 47.5947 159.974C47.5947 157.022 48.1298 154.444 49.2002 152.242C50.2829 150.04 51.7839 148.33 53.7031 147.112C55.6347 145.894 57.88 145.285 60.4391 145.285C62.9981 145.285 65.2373 145.894 67.1566 147.112C69.0881 148.33 70.5891 150.04 71.6595 152.242C72.7421 154.444 73.2835 157.022 73.2835 159.974C73.2835 162.903 72.7421 165.462 71.6595 167.652C70.5891 169.842 69.0881 171.546 67.1566 172.764C65.2373 173.982 62.9981 174.591 60.4391 174.591ZM60.4391 170.678C62.383 170.678 63.9824 170.18 65.2373 169.183C66.4922 168.187 67.4211 166.877 68.0239 165.253C68.6268 163.629 68.9282 161.869 68.9282 159.974C68.9282 158.08 68.6268 156.314 68.0239 154.678C67.4211 153.042 66.4922 151.719 65.2373 150.71C63.9824 149.701 62.383 149.197 60.4391 149.197C58.4952 149.197 56.8958 149.701 55.6409 150.71C54.386 151.719 53.4571 153.042 52.8542 154.678C52.2514 156.314 51.9499 158.08 51.9499 159.974C51.9499 161.869 52.2514 163.629 52.8542 165.253C53.4571 166.877 54.386 168.187 55.6409 169.183C56.8958 170.18 58.4952 170.678 60.4391 170.678ZM79.9318 174V145.654H84.1394V150.083H84.5085C85.099 148.57 86.0525 147.395 87.369 146.558C88.6854 145.709 90.2663 145.285 92.1118 145.285C93.9819 145.285 95.5382 145.709 96.7808 146.558C98.0357 147.395 99.0138 148.57 99.7151 150.083H100.01C100.736 148.619 101.825 147.456 103.277 146.595C104.729 145.721 106.469 145.285 108.5 145.285C111.034 145.285 113.107 146.078 114.719 147.665C116.33 149.24 117.136 151.695 117.136 155.029V174H112.781V155.029C112.781 152.937 112.209 151.442 111.065 150.544C109.921 149.646 108.573 149.197 107.023 149.197C105.03 149.197 103.486 149.8 102.391 151.006C101.296 152.199 100.749 153.712 100.749 155.545V174H96.3195V154.586C96.3195 152.974 95.7966 151.676 94.7508 150.692C93.7051 149.695 92.3579 149.197 90.7092 149.197C89.5774 149.197 88.5193 149.498 87.5351 150.101C86.5631 150.704 85.7757 151.541 85.1729 152.611C84.5823 153.669 84.287 154.893 84.287 156.284V174H79.9318ZM125.099 184.63V145.654H129.307V150.157H129.824C130.144 149.665 130.587 149.037 131.153 148.274C131.731 147.499 132.555 146.81 133.625 146.207C134.708 145.592 136.172 145.285 138.018 145.285C140.404 145.285 142.508 145.881 144.329 147.075C146.15 148.268 147.571 149.96 148.592 152.15C149.613 154.34 150.124 156.923 150.124 159.901C150.124 162.903 149.613 165.505 148.592 167.707C147.571 169.897 146.156 171.595 144.348 172.8C142.539 173.994 140.454 174.591 138.091 174.591C136.271 174.591 134.813 174.289 133.718 173.686C132.623 173.071 131.78 172.376 131.189 171.601C130.599 170.814 130.144 170.161 129.824 169.645H129.455V184.63H125.099ZM129.381 159.827C129.381 161.968 129.695 163.856 130.322 165.492C130.95 167.116 131.866 168.39 133.072 169.313C134.278 170.223 135.754 170.678 137.501 170.678C139.322 170.678 140.841 170.198 142.059 169.239C143.29 168.267 144.212 166.963 144.827 165.326C145.455 163.678 145.769 161.845 145.769 159.827C145.769 157.834 145.461 156.038 144.846 154.438C144.243 152.826 143.326 151.553 142.096 150.618C140.878 149.671 139.346 149.197 137.501 149.197C135.729 149.197 134.241 149.646 133.035 150.544C131.829 151.43 130.919 152.673 130.304 154.272C129.688 155.859 129.381 157.711 129.381 159.827ZM165.109 174.664C163.313 174.664 161.683 174.326 160.219 173.649C158.755 172.96 157.592 171.97 156.731 170.678C155.869 169.374 155.439 167.799 155.439 165.954C155.439 164.33 155.759 163.013 156.398 162.004C157.038 160.983 157.893 160.184 158.964 159.605C160.034 159.027 161.215 158.597 162.507 158.314C163.811 158.018 165.121 157.785 166.438 157.612C168.16 157.391 169.557 157.225 170.627 157.114C171.71 156.991 172.497 156.788 172.989 156.505C173.494 156.222 173.746 155.73 173.746 155.029V154.881C173.746 153.06 173.248 151.645 172.251 150.636C171.267 149.628 169.772 149.123 167.767 149.123C165.687 149.123 164.057 149.578 162.876 150.489C161.695 151.399 160.864 152.371 160.385 153.405L156.251 151.928C156.989 150.206 157.973 148.865 159.204 147.905C160.446 146.933 161.8 146.257 163.264 145.875C164.74 145.481 166.192 145.285 167.619 145.285C168.529 145.285 169.575 145.395 170.756 145.617C171.95 145.826 173.1 146.263 174.207 146.927C175.327 147.591 176.256 148.594 176.994 149.935C177.732 151.276 178.101 153.072 178.101 155.324V174H173.746V170.161H173.524C173.229 170.777 172.737 171.435 172.048 172.136C171.359 172.837 170.442 173.434 169.298 173.926C168.154 174.418 166.758 174.664 165.109 174.664ZM165.773 170.752C167.496 170.752 168.948 170.414 170.129 169.737C171.322 169.06 172.22 168.187 172.823 167.116C173.438 166.046 173.746 164.92 173.746 163.739V159.753C173.561 159.974 173.155 160.177 172.528 160.362C171.913 160.534 171.199 160.688 170.387 160.823C169.587 160.946 168.806 161.057 168.043 161.156C167.293 161.242 166.684 161.316 166.216 161.377C165.084 161.525 164.026 161.765 163.042 162.097C162.07 162.417 161.283 162.903 160.68 163.555C160.089 164.194 159.794 165.068 159.794 166.175C159.794 167.689 160.354 168.833 161.473 169.608C162.605 170.371 164.039 170.752 165.773 170.752ZM190.406 156.948V174H186.05V145.654H190.258V150.083H190.627C191.292 148.643 192.3 147.487 193.654 146.613C195.007 145.728 196.754 145.285 198.895 145.285C200.814 145.285 202.493 145.678 203.933 146.466C205.372 147.241 206.492 148.422 207.292 150.009C208.091 151.584 208.491 153.577 208.491 155.988V174H204.136V156.284C204.136 154.057 203.558 152.322 202.401 151.079C201.245 149.824 199.658 149.197 197.64 149.197C196.25 149.197 195.007 149.498 193.912 150.101C192.829 150.704 191.974 151.584 191.347 152.74C190.719 153.897 190.406 155.299 190.406 156.948ZM218.24 184.63C217.502 184.63 216.843 184.568 216.265 184.445C215.687 184.335 215.287 184.224 215.066 184.113L216.173 180.275C217.231 180.545 218.166 180.644 218.978 180.57C219.79 180.496 220.51 180.133 221.137 179.481C221.777 178.841 222.361 177.802 222.89 176.362L223.702 174.148L213.22 145.654H217.945L225.769 168.242H226.065L233.889 145.654H238.614L226.581 178.134C226.04 179.598 225.37 180.81 224.57 181.769C223.77 182.741 222.841 183.461 221.783 183.929C220.737 184.396 219.556 184.63 218.24 184.63Z" fill="#9E394F"/>
<path d="M83.3137 1.37125e-05L41.8923 41.2395L83.3137 82.479L124.735 41.2395L83.3137 1.37125e-05Z" fill="#F63F61"/>
<path d="M124.735 41.2399L83.3137 82.4794L124.735 123.719L166.157 82.4794L124.735 41.2399Z" fill="#F86A42"/>
<path d="M166.157 0.000573795L124.736 41.2401L166.157 82.4795L207.579 41.2401L166.157 0.000573795Z" fill="#FAAE00"/>
<path d="M41.8918 41.2393L0.470337 82.4788L41.8918 123.718L83.3133 82.4788L41.8918 41.2393Z" fill="#9E394F"/>
<path d="M207.579 41.2404L166.157 82.4799L207.579 123.719L249 82.4799L207.579 41.2404Z" fill="#9E394F"/>
</svg>
